<mxfile host="app.diagrams.net" modified="2021-08-12T06:49:54.961Z" agent="5.0 (Windows NT 10.0; Win64; x64) AppleWebKit/537.36 (KHTML, like Gecko) Chrome/92.0.4515.131 Safari/537.36" etag="-Ianse3lgrtvqcbj_STR" version="14.9.6" type="github">
  <diagram id="jvpLVMVhIR2zp9GxV2rX" name="Page-1">
    <mxGraphModel dx="868" dy="450" grid="1" gridSize="10" guides="1" tooltips="1" connect="1" arrows="1" fold="1" page="1" pageScale="1" pageWidth="850" pageHeight="1100" math="0" shadow="0">
      <root>
        <mxCell id="0" />
        <mxCell id="1" parent="0" />
        <mxCell id="C9KNnnCRglDRXyzisE5E-1" value="Agents" style="swimlane;startSize=20;horizontal=1;childLayout=treeLayout;horizontalTree=0;resizable=0;containerType=tree;" vertex="1" parent="1">
          <mxGeometry x="300" y="152" width="280" height="190" as="geometry" />
        </mxCell>
        <mxCell id="C9KNnnCRglDRXyzisE5E-2" value="Agent" style="whiteSpace=wrap;html=1;" vertex="1" parent="C9KNnnCRglDRXyzisE5E-1">
          <mxGeometry x="90" y="40" width="100" height="40" as="geometry" />
        </mxCell>
        <mxCell id="C9KNnnCRglDRXyzisE5E-3" value="SME Agent" style="whiteSpace=wrap;html=1;" vertex="1" parent="C9KNnnCRglDRXyzisE5E-1">
          <mxGeometry x="20" y="130" width="100" height="40" as="geometry" />
        </mxCell>
        <mxCell id="C9KNnnCRglDRXyzisE5E-4" value="" style="edgeStyle=elbowEdgeStyle;elbow=vertical;html=1;rounded=0;" edge="1" parent="C9KNnnCRglDRXyzisE5E-1" source="C9KNnnCRglDRXyzisE5E-2" target="C9KNnnCRglDRXyzisE5E-3">
          <mxGeometry relative="1" as="geometry" />
        </mxCell>
        <mxCell id="C9KNnnCRglDRXyzisE5E-5" value="Manager Agent" style="whiteSpace=wrap;html=1;" vertex="1" parent="C9KNnnCRglDRXyzisE5E-1">
          <mxGeometry x="160" y="130" width="100" height="40" as="geometry" />
        </mxCell>
        <mxCell id="C9KNnnCRglDRXyzisE5E-6" value="" style="edgeStyle=elbowEdgeStyle;elbow=vertical;html=1;rounded=0;" edge="1" parent="C9KNnnCRglDRXyzisE5E-1" source="C9KNnnCRglDRXyzisE5E-2" target="C9KNnnCRglDRXyzisE5E-5">
          <mxGeometry relative="1" as="geometry" />
        </mxCell>
        <mxCell id="C9KNnnCRglDRXyzisE5E-7" value="&lt;b&gt;Helpdesk Users&lt;/b&gt;" style="rounded=0;whiteSpace=wrap;html=1;" vertex="1" parent="1">
          <mxGeometry x="140" y="152" width="120" height="60" as="geometry" />
        </mxCell>
        <mxCell id="C9KNnnCRglDRXyzisE5E-8" value="&lt;b&gt;Superadmin&lt;/b&gt;" style="rounded=0;whiteSpace=wrap;html=1;" vertex="1" parent="1">
          <mxGeometry x="630" y="152" width="120" height="60" as="geometry" />
        </mxCell>
        <mxCell id="C9KNnnCRglDRXyzisE5E-9" value="" style="strokeWidth=2;html=1;shape=mxgraph.flowchart.annotation_2;align=left;labelPosition=right;pointerEvents=1;rotation=90;" vertex="1" parent="1">
          <mxGeometry x="409.73" y="-118.47" width="50" height="500" as="geometry" />
        </mxCell>
        <mxCell id="C9KNnnCRglDRXyzisE5E-11" style="edgeStyle=orthogonalEdgeStyle;rounded=0;orthogonalLoop=1;jettySize=auto;html=1;exitX=1;exitY=0.5;exitDx=0;exitDy=0;exitPerimeter=0;entryX=0.509;entryY=0.501;entryDx=0;entryDy=0;entryPerimeter=0;" edge="1" parent="1" source="C9KNnnCRglDRXyzisE5E-9" target="C9KNnnCRglDRXyzisE5E-9">
          <mxGeometry relative="1" as="geometry" />
        </mxCell>
        <mxCell id="C9KNnnCRglDRXyzisE5E-15" value="&lt;b&gt;Roles Classification&lt;/b&gt;" style="rounded=1;whiteSpace=wrap;html=1;" vertex="1" parent="1">
          <mxGeometry x="370" y="60" width="120" height="40" as="geometry" />
        </mxCell>
      </root>
    </mxGraphModel>
  </diagram>
</mxfile>
